<mxfile host="app.diagrams.net" agent="Mozilla/5.0 (X11; Linux x86_64; rv:132.0) Gecko/20100101 Firefox/132.0" version="24.8.6">
  <diagram name="Page-1" id="25HsGfQOTVlsZXj9wSLe">
    <mxGraphModel dx="2573" dy="1393" grid="1" gridSize="10" guides="1" tooltips="1" connect="1" arrows="1" fold="1" page="1" pageScale="1" pageWidth="850" pageHeight="1100" math="0" shadow="0">
      <root>
        <mxCell id="0" />
        <mxCell id="1" parent="0" />
        <mxCell id="RQP4UaDVUN7FKSA59rx9-2" value="" style="rounded=0;whiteSpace=wrap;html=1;strokeWidth=4;" vertex="1" parent="1">
          <mxGeometry x="200" y="700" width="520" height="460" as="geometry" />
        </mxCell>
        <mxCell id="RQP4UaDVUN7FKSA59rx9-3" value="" style="rounded=0;whiteSpace=wrap;html=1;strokeWidth=4;" vertex="1" parent="1">
          <mxGeometry x="200" y="300" width="1060" height="380" as="geometry" />
        </mxCell>
        <mxCell id="RQP4UaDVUN7FKSA59rx9-5" value="" style="rounded=1;whiteSpace=wrap;html=1;fillColor=none;strokeWidth=2;dashed=1;" vertex="1" parent="1">
          <mxGeometry x="942.5" y="520" width="267.5" height="100" as="geometry" />
        </mxCell>
        <mxCell id="RQP4UaDVUN7FKSA59rx9-6" value="" style="rounded=1;whiteSpace=wrap;html=1;fillColor=none;strokeWidth=2;dashed=1;" vertex="1" parent="1">
          <mxGeometry x="942.5" y="390" width="267.5" height="100" as="geometry" />
        </mxCell>
        <mxCell id="RQP4UaDVUN7FKSA59rx9-7" value="" style="rounded=1;whiteSpace=wrap;html=1;fillColor=none;strokeWidth=2;dashed=1;" vertex="1" parent="1">
          <mxGeometry x="720" y="390" width="180" height="100" as="geometry" />
        </mxCell>
        <mxCell id="RQP4UaDVUN7FKSA59rx9-8" value="" style="rounded=1;whiteSpace=wrap;html=1;fillColor=none;strokeWidth=2;dashed=1;" vertex="1" parent="1">
          <mxGeometry x="250" y="390" width="200" height="230" as="geometry" />
        </mxCell>
        <mxCell id="RQP4UaDVUN7FKSA59rx9-9" value="" style="rounded=1;whiteSpace=wrap;html=1;fillColor=none;strokeWidth=2;dashed=1;" vertex="1" parent="1">
          <mxGeometry x="480" y="390" width="200" height="230" as="geometry" />
        </mxCell>
        <mxCell id="RQP4UaDVUN7FKSA59rx9-10" value="" style="group" vertex="1" connectable="0" parent="1">
          <mxGeometry x="500" y="440" width="160" height="160" as="geometry" />
        </mxCell>
        <mxCell id="RQP4UaDVUN7FKSA59rx9-11" value="" style="rounded=0;whiteSpace=wrap;html=1;" vertex="1" parent="RQP4UaDVUN7FKSA59rx9-10">
          <mxGeometry width="160" height="160" as="geometry" />
        </mxCell>
        <mxCell id="RQP4UaDVUN7FKSA59rx9-12" value="" style="rounded=0;whiteSpace=wrap;html=1;" vertex="1" parent="RQP4UaDVUN7FKSA59rx9-10">
          <mxGeometry width="40" height="40" as="geometry" />
        </mxCell>
        <mxCell id="RQP4UaDVUN7FKSA59rx9-13" value="" style="rounded=0;whiteSpace=wrap;html=1;" vertex="1" parent="RQP4UaDVUN7FKSA59rx9-10">
          <mxGeometry y="40" width="40" height="40" as="geometry" />
        </mxCell>
        <mxCell id="RQP4UaDVUN7FKSA59rx9-14" value="" style="rounded=0;whiteSpace=wrap;html=1;" vertex="1" parent="RQP4UaDVUN7FKSA59rx9-10">
          <mxGeometry y="80" width="40" height="40" as="geometry" />
        </mxCell>
        <mxCell id="RQP4UaDVUN7FKSA59rx9-15" value="" style="rounded=0;whiteSpace=wrap;html=1;" vertex="1" parent="RQP4UaDVUN7FKSA59rx9-10">
          <mxGeometry y="120" width="40" height="40" as="geometry" />
        </mxCell>
        <mxCell id="RQP4UaDVUN7FKSA59rx9-16" value="" style="rounded=0;whiteSpace=wrap;html=1;" vertex="1" parent="RQP4UaDVUN7FKSA59rx9-10">
          <mxGeometry x="40" width="40" height="40" as="geometry" />
        </mxCell>
        <mxCell id="RQP4UaDVUN7FKSA59rx9-17" value="" style="rounded=0;whiteSpace=wrap;html=1;" vertex="1" parent="RQP4UaDVUN7FKSA59rx9-10">
          <mxGeometry x="40" y="40" width="40" height="40" as="geometry" />
        </mxCell>
        <mxCell id="RQP4UaDVUN7FKSA59rx9-18" value="" style="rounded=0;whiteSpace=wrap;html=1;" vertex="1" parent="RQP4UaDVUN7FKSA59rx9-10">
          <mxGeometry x="40" y="80" width="40" height="40" as="geometry" />
        </mxCell>
        <mxCell id="RQP4UaDVUN7FKSA59rx9-19" value="" style="rounded=0;whiteSpace=wrap;html=1;" vertex="1" parent="RQP4UaDVUN7FKSA59rx9-10">
          <mxGeometry x="40" y="120" width="40" height="40" as="geometry" />
        </mxCell>
        <mxCell id="RQP4UaDVUN7FKSA59rx9-20" value="" style="rounded=0;whiteSpace=wrap;html=1;" vertex="1" parent="RQP4UaDVUN7FKSA59rx9-10">
          <mxGeometry x="80" width="40" height="40" as="geometry" />
        </mxCell>
        <mxCell id="RQP4UaDVUN7FKSA59rx9-21" value="" style="rounded=0;whiteSpace=wrap;html=1;" vertex="1" parent="RQP4UaDVUN7FKSA59rx9-10">
          <mxGeometry x="80" y="40" width="40" height="40" as="geometry" />
        </mxCell>
        <mxCell id="RQP4UaDVUN7FKSA59rx9-22" value="" style="rounded=0;whiteSpace=wrap;html=1;" vertex="1" parent="RQP4UaDVUN7FKSA59rx9-10">
          <mxGeometry x="80" y="80" width="40" height="40" as="geometry" />
        </mxCell>
        <mxCell id="RQP4UaDVUN7FKSA59rx9-23" value="" style="rounded=0;whiteSpace=wrap;html=1;" vertex="1" parent="RQP4UaDVUN7FKSA59rx9-10">
          <mxGeometry x="80" y="120" width="40" height="40" as="geometry" />
        </mxCell>
        <mxCell id="RQP4UaDVUN7FKSA59rx9-24" value="" style="rounded=0;whiteSpace=wrap;html=1;" vertex="1" parent="RQP4UaDVUN7FKSA59rx9-10">
          <mxGeometry x="120" width="40" height="40" as="geometry" />
        </mxCell>
        <mxCell id="RQP4UaDVUN7FKSA59rx9-25" value="" style="rounded=0;whiteSpace=wrap;html=1;" vertex="1" parent="RQP4UaDVUN7FKSA59rx9-10">
          <mxGeometry x="120" y="40" width="40" height="40" as="geometry" />
        </mxCell>
        <mxCell id="RQP4UaDVUN7FKSA59rx9-26" value="" style="rounded=0;whiteSpace=wrap;html=1;" vertex="1" parent="RQP4UaDVUN7FKSA59rx9-10">
          <mxGeometry x="120" y="80" width="40" height="40" as="geometry" />
        </mxCell>
        <mxCell id="RQP4UaDVUN7FKSA59rx9-27" value="" style="rounded=0;whiteSpace=wrap;html=1;" vertex="1" parent="RQP4UaDVUN7FKSA59rx9-10">
          <mxGeometry x="120" y="120" width="40" height="40" as="geometry" />
        </mxCell>
        <mxCell id="RQP4UaDVUN7FKSA59rx9-28" value="&lt;p style=&quot;font-size: 24px;&quot;&gt;&lt;b style=&quot;font-size: 24px;&quot;&gt;&lt;font style=&quot;font-size: 24px;&quot;&gt;PRMatrix-Host&lt;/font&gt;&lt;/b&gt;&lt;/p&gt;" style="text;html=1;align=center;verticalAlign=middle;whiteSpace=wrap;rounded=0;fontSize=24;" vertex="1" parent="1">
          <mxGeometry x="263.21" y="410" width="171.19" height="30" as="geometry" />
        </mxCell>
        <mxCell id="RQP4UaDVUN7FKSA59rx9-29" value="&lt;p&gt;&lt;b&gt;&lt;font style=&quot;font-size: 24px;&quot;&gt;PrefListsW-Host&lt;/font&gt;&lt;/b&gt;&lt;/p&gt;" style="text;html=1;align=center;verticalAlign=middle;whiteSpace=wrap;rounded=0;" vertex="1" parent="1">
          <mxGeometry x="483.75" y="410" width="192.5" height="30" as="geometry" />
        </mxCell>
        <mxCell id="RQP4UaDVUN7FKSA59rx9-30" value="" style="group" vertex="1" connectable="0" parent="1">
          <mxGeometry x="730" y="430" width="160" height="80" as="geometry" />
        </mxCell>
        <mxCell id="RQP4UaDVUN7FKSA59rx9-31" value="" style="rounded=0;whiteSpace=wrap;html=1;" vertex="1" parent="RQP4UaDVUN7FKSA59rx9-30">
          <mxGeometry width="40" height="40" as="geometry" />
        </mxCell>
        <mxCell id="RQP4UaDVUN7FKSA59rx9-32" value="" style="rounded=0;whiteSpace=wrap;html=1;" vertex="1" parent="RQP4UaDVUN7FKSA59rx9-30">
          <mxGeometry x="40" width="40" height="40" as="geometry" />
        </mxCell>
        <mxCell id="RQP4UaDVUN7FKSA59rx9-33" value="" style="rounded=0;whiteSpace=wrap;html=1;" vertex="1" parent="RQP4UaDVUN7FKSA59rx9-30">
          <mxGeometry x="80" width="40" height="40" as="geometry" />
        </mxCell>
        <mxCell id="RQP4UaDVUN7FKSA59rx9-34" value="" style="rounded=0;whiteSpace=wrap;html=1;" vertex="1" parent="RQP4UaDVUN7FKSA59rx9-30">
          <mxGeometry x="120" width="40" height="40" as="geometry" />
        </mxCell>
        <mxCell id="RQP4UaDVUN7FKSA59rx9-35" value="&lt;p style=&quot;font-size: 24px;&quot;&gt;&lt;b style=&quot;font-size: 24px;&quot;&gt;&lt;font style=&quot;font-size: 24px;&quot;&gt;Next-Host&lt;/font&gt;&lt;/b&gt;&lt;/p&gt;" style="text;html=1;align=center;verticalAlign=middle;whiteSpace=wrap;rounded=0;fontSize=24;" vertex="1" parent="1">
          <mxGeometry x="750" y="400" width="120" height="30" as="geometry" />
        </mxCell>
        <mxCell id="RQP4UaDVUN7FKSA59rx9-36" value="" style="rounded=1;whiteSpace=wrap;html=1;fillColor=none;strokeWidth=2;dashed=1;" vertex="1" parent="1">
          <mxGeometry x="720" y="520" width="200" height="100" as="geometry" />
        </mxCell>
        <mxCell id="RQP4UaDVUN7FKSA59rx9-37" value="" style="group" vertex="1" connectable="0" parent="1">
          <mxGeometry x="550" y="560" width="230" height="120" as="geometry" />
        </mxCell>
        <mxCell id="RQP4UaDVUN7FKSA59rx9-38" value="" style="rounded=0;whiteSpace=wrap;html=1;" vertex="1" parent="RQP4UaDVUN7FKSA59rx9-37">
          <mxGeometry x="190" width="40" height="40" as="geometry" />
        </mxCell>
        <mxCell id="RQP4UaDVUN7FKSA59rx9-39" value="" style="rounded=0;whiteSpace=wrap;html=1;" vertex="1" parent="RQP4UaDVUN7FKSA59rx9-37">
          <mxGeometry x="230" width="40" height="40" as="geometry" />
        </mxCell>
        <mxCell id="RQP4UaDVUN7FKSA59rx9-40" value="" style="rounded=0;whiteSpace=wrap;html=1;" vertex="1" parent="RQP4UaDVUN7FKSA59rx9-37">
          <mxGeometry x="270" width="40" height="40" as="geometry" />
        </mxCell>
        <mxCell id="RQP4UaDVUN7FKSA59rx9-41" value="" style="rounded=0;whiteSpace=wrap;html=1;" vertex="1" parent="RQP4UaDVUN7FKSA59rx9-37">
          <mxGeometry x="310" width="40" height="40" as="geometry" />
        </mxCell>
        <mxCell id="RQP4UaDVUN7FKSA59rx9-42" value="&lt;p style=&quot;font-size: 24px;&quot;&gt;&lt;b style=&quot;font-size: 24px;&quot;&gt;&lt;font style=&quot;font-size: 24px;&quot;&gt;ParterRank-Host&lt;/font&gt;&lt;/b&gt;&lt;br style=&quot;font-size: 24px;&quot;&gt;&lt;/p&gt;" style="text;html=1;align=center;verticalAlign=middle;whiteSpace=wrap;rounded=0;fontSize=24;" vertex="1" parent="1">
          <mxGeometry x="720" y="530" width="200" height="30" as="geometry" />
        </mxCell>
        <mxCell id="RQP4UaDVUN7FKSA59rx9-46" value="" style="rounded=0;whiteSpace=wrap;html=1;" vertex="1" parent="1">
          <mxGeometry x="270" y="440" width="157.61194029850745" height="160" as="geometry" />
        </mxCell>
        <mxCell id="RQP4UaDVUN7FKSA59rx9-47" value="" style="rounded=0;whiteSpace=wrap;html=1;" vertex="1" parent="1">
          <mxGeometry x="270" y="440" width="39.40298507462686" height="40" as="geometry" />
        </mxCell>
        <mxCell id="RQP4UaDVUN7FKSA59rx9-48" value="" style="rounded=0;whiteSpace=wrap;html=1;" vertex="1" parent="1">
          <mxGeometry x="270" y="480" width="39.40298507462686" height="40" as="geometry" />
        </mxCell>
        <mxCell id="RQP4UaDVUN7FKSA59rx9-49" value="" style="rounded=0;whiteSpace=wrap;html=1;" vertex="1" parent="1">
          <mxGeometry x="270" y="520" width="39.40298507462686" height="40" as="geometry" />
        </mxCell>
        <mxCell id="RQP4UaDVUN7FKSA59rx9-50" value="" style="rounded=0;whiteSpace=wrap;html=1;" vertex="1" parent="1">
          <mxGeometry x="270" y="560" width="39.40298507462686" height="40" as="geometry" />
        </mxCell>
        <mxCell id="RQP4UaDVUN7FKSA59rx9-51" value="" style="rounded=0;whiteSpace=wrap;html=1;" vertex="1" parent="1">
          <mxGeometry x="309.4029850746268" y="440" width="39.40298507462686" height="40" as="geometry" />
        </mxCell>
        <mxCell id="RQP4UaDVUN7FKSA59rx9-52" value="" style="rounded=0;whiteSpace=wrap;html=1;" vertex="1" parent="1">
          <mxGeometry x="309.4029850746268" y="480" width="39.40298507462686" height="40" as="geometry" />
        </mxCell>
        <mxCell id="RQP4UaDVUN7FKSA59rx9-53" value="" style="rounded=0;whiteSpace=wrap;html=1;" vertex="1" parent="1">
          <mxGeometry x="309.4029850746268" y="520" width="39.40298507462686" height="40" as="geometry" />
        </mxCell>
        <mxCell id="RQP4UaDVUN7FKSA59rx9-54" value="" style="rounded=0;whiteSpace=wrap;html=1;" vertex="1" parent="1">
          <mxGeometry x="309.4029850746268" y="560" width="39.40298507462686" height="40" as="geometry" />
        </mxCell>
        <mxCell id="RQP4UaDVUN7FKSA59rx9-55" value="" style="rounded=0;whiteSpace=wrap;html=1;" vertex="1" parent="1">
          <mxGeometry x="348.8059701492537" y="440" width="39.40298507462686" height="40" as="geometry" />
        </mxCell>
        <mxCell id="RQP4UaDVUN7FKSA59rx9-56" value="" style="rounded=0;whiteSpace=wrap;html=1;" vertex="1" parent="1">
          <mxGeometry x="348.8059701492537" y="480" width="39.40298507462686" height="40" as="geometry" />
        </mxCell>
        <mxCell id="RQP4UaDVUN7FKSA59rx9-57" value="" style="rounded=0;whiteSpace=wrap;html=1;" vertex="1" parent="1">
          <mxGeometry x="348.8059701492537" y="520" width="39.40298507462686" height="40" as="geometry" />
        </mxCell>
        <mxCell id="RQP4UaDVUN7FKSA59rx9-58" value="" style="rounded=0;whiteSpace=wrap;html=1;" vertex="1" parent="1">
          <mxGeometry x="348.8059701492537" y="560" width="39.40298507462686" height="40" as="geometry" />
        </mxCell>
        <mxCell id="RQP4UaDVUN7FKSA59rx9-59" value="" style="rounded=0;whiteSpace=wrap;html=1;" vertex="1" parent="1">
          <mxGeometry x="388.2089552238806" y="440" width="39.40298507462686" height="40" as="geometry" />
        </mxCell>
        <mxCell id="RQP4UaDVUN7FKSA59rx9-60" value="" style="rounded=0;whiteSpace=wrap;html=1;" vertex="1" parent="1">
          <mxGeometry x="388.2089552238806" y="480" width="39.40298507462686" height="40" as="geometry" />
        </mxCell>
        <mxCell id="RQP4UaDVUN7FKSA59rx9-61" value="" style="rounded=0;whiteSpace=wrap;html=1;" vertex="1" parent="1">
          <mxGeometry x="388.2089552238806" y="520" width="39.40298507462686" height="40" as="geometry" />
        </mxCell>
        <mxCell id="RQP4UaDVUN7FKSA59rx9-62" value="" style="rounded=0;whiteSpace=wrap;html=1;" vertex="1" parent="1">
          <mxGeometry x="388.2089552238806" y="560" width="39.40298507462686" height="40" as="geometry" />
        </mxCell>
        <mxCell id="RQP4UaDVUN7FKSA59rx9-63" value="" style="rounded=1;whiteSpace=wrap;html=1;fillColor=none;strokeWidth=2;dashed=1;" vertex="1" parent="1">
          <mxGeometry x="467.1" y="1040" width="220.9" height="100" as="geometry" />
        </mxCell>
        <mxCell id="RQP4UaDVUN7FKSA59rx9-64" value="" style="rounded=1;whiteSpace=wrap;html=1;fillColor=none;strokeWidth=2;dashed=1;" vertex="1" parent="1">
          <mxGeometry x="239.10000000000002" y="1040" width="180" height="100" as="geometry" />
        </mxCell>
        <mxCell id="RQP4UaDVUN7FKSA59rx9-65" value="&lt;b style=&quot;font-size: 36px;&quot;&gt;&lt;font style=&quot;font-size: 36px;&quot;&gt;&amp;nbsp;GPU&lt;br&gt;&lt;/font&gt;&lt;/b&gt;" style="rounded=1;whiteSpace=wrap;html=1;strokeColor=none;fillColor=none;fontSize=36;" vertex="1" parent="1">
          <mxGeometry x="265" y="710" width="390" height="40" as="geometry" />
        </mxCell>
        <mxCell id="RQP4UaDVUN7FKSA59rx9-66" value="" style="group" vertex="1" connectable="0" parent="1">
          <mxGeometry x="249.10000000000002" y="1080" width="160" height="80" as="geometry" />
        </mxCell>
        <mxCell id="RQP4UaDVUN7FKSA59rx9-67" value="" style="group" vertex="1" connectable="0" parent="RQP4UaDVUN7FKSA59rx9-66">
          <mxGeometry width="160" height="40" as="geometry" />
        </mxCell>
        <mxCell id="RQP4UaDVUN7FKSA59rx9-68" value="" style="rounded=0;whiteSpace=wrap;html=1;" vertex="1" parent="RQP4UaDVUN7FKSA59rx9-67">
          <mxGeometry width="40" height="40" as="geometry" />
        </mxCell>
        <mxCell id="RQP4UaDVUN7FKSA59rx9-69" value="" style="rounded=0;whiteSpace=wrap;html=1;" vertex="1" parent="RQP4UaDVUN7FKSA59rx9-67">
          <mxGeometry x="40" width="40" height="40" as="geometry" />
        </mxCell>
        <mxCell id="RQP4UaDVUN7FKSA59rx9-70" value="" style="rounded=0;whiteSpace=wrap;html=1;" vertex="1" parent="RQP4UaDVUN7FKSA59rx9-67">
          <mxGeometry x="80" width="40" height="40" as="geometry" />
        </mxCell>
        <mxCell id="RQP4UaDVUN7FKSA59rx9-71" value="" style="rounded=0;whiteSpace=wrap;html=1;" vertex="1" parent="RQP4UaDVUN7FKSA59rx9-67">
          <mxGeometry x="120" width="40" height="40" as="geometry" />
        </mxCell>
        <mxCell id="RQP4UaDVUN7FKSA59rx9-72" value="&lt;p style=&quot;font-size: 24px;&quot;&gt;&lt;b style=&quot;font-size: 24px;&quot;&gt;&lt;font style=&quot;font-size: 24px;&quot;&gt;Next-PGPU&lt;/font&gt;&lt;/b&gt;&lt;/p&gt;" style="text;html=1;align=center;verticalAlign=middle;whiteSpace=wrap;rounded=0;fontSize=24;" vertex="1" parent="1">
          <mxGeometry x="249.55" y="1050" width="160.45" height="30" as="geometry" />
        </mxCell>
        <mxCell id="RQP4UaDVUN7FKSA59rx9-73" value="" style="group" vertex="1" connectable="0" parent="1">
          <mxGeometry x="497.55" y="1080" width="160" height="80" as="geometry" />
        </mxCell>
        <mxCell id="RQP4UaDVUN7FKSA59rx9-74" value="" style="group" vertex="1" connectable="0" parent="RQP4UaDVUN7FKSA59rx9-73">
          <mxGeometry width="160" height="40" as="geometry" />
        </mxCell>
        <mxCell id="RQP4UaDVUN7FKSA59rx9-75" value="" style="rounded=0;whiteSpace=wrap;html=1;" vertex="1" parent="RQP4UaDVUN7FKSA59rx9-74">
          <mxGeometry width="40" height="40" as="geometry" />
        </mxCell>
        <mxCell id="RQP4UaDVUN7FKSA59rx9-76" value="" style="rounded=0;whiteSpace=wrap;html=1;" vertex="1" parent="RQP4UaDVUN7FKSA59rx9-74">
          <mxGeometry x="40" width="40" height="40" as="geometry" />
        </mxCell>
        <mxCell id="RQP4UaDVUN7FKSA59rx9-77" value="" style="rounded=0;whiteSpace=wrap;html=1;" vertex="1" parent="RQP4UaDVUN7FKSA59rx9-74">
          <mxGeometry x="80" width="40" height="40" as="geometry" />
        </mxCell>
        <mxCell id="RQP4UaDVUN7FKSA59rx9-78" value="" style="rounded=0;whiteSpace=wrap;html=1;" vertex="1" parent="RQP4UaDVUN7FKSA59rx9-74">
          <mxGeometry x="120" width="40" height="40" as="geometry" />
        </mxCell>
        <mxCell id="RQP4UaDVUN7FKSA59rx9-79" value="&lt;p style=&quot;font-size: 24px;&quot;&gt;&lt;b style=&quot;font-size: 24px;&quot;&gt;&lt;font style=&quot;font-size: 24px;&quot;&gt;ParterRank-PGPU&lt;/font&gt;&lt;/b&gt;&lt;/p&gt;" style="text;html=1;align=center;verticalAlign=middle;whiteSpace=wrap;rounded=0;fontSize=24;" vertex="1" parent="1">
          <mxGeometry x="470" y="1050" width="220" height="36.85" as="geometry" />
        </mxCell>
        <mxCell id="RQP4UaDVUN7FKSA59rx9-80" value="&lt;b style=&quot;&quot;&gt;&lt;font style=&quot;font-size: 36px;&quot;&gt;Host Memory&lt;/font&gt;&lt;/b&gt;" style="rounded=1;whiteSpace=wrap;html=1;strokeColor=none;fillColor=none;strokeWidth=3;fontSize=48;" vertex="1" parent="1">
          <mxGeometry x="571" y="290" width="310" height="80" as="geometry" />
        </mxCell>
        <mxCell id="RQP4UaDVUN7FKSA59rx9-81" value="" style="rounded=0;whiteSpace=wrap;html=1;" vertex="1" parent="1">
          <mxGeometry x="1058.13" y="560" width="40" height="40" as="geometry" />
        </mxCell>
        <mxCell id="RQP4UaDVUN7FKSA59rx9-82" value="" style="rounded=0;whiteSpace=wrap;html=1;" vertex="1" parent="1">
          <mxGeometry x="1058.13" y="430" width="40" height="40" as="geometry" />
        </mxCell>
        <mxCell id="RQP4UaDVUN7FKSA59rx9-83" value="&lt;p style=&quot;font-size: 24px;&quot;&gt;&lt;b style=&quot;font-size: 24px;&quot;&gt;&lt;font style=&quot;font-size: 24px;&quot;&gt;UnmatchedNum-Host&lt;/font&gt;&lt;/b&gt;&lt;br style=&quot;font-size: 24px;&quot;&gt;&lt;/p&gt;" style="text;html=1;align=center;verticalAlign=middle;whiteSpace=wrap;rounded=0;fontSize=24;" vertex="1" parent="1">
          <mxGeometry x="946.25" y="400" width="263.75" height="30" as="geometry" />
        </mxCell>
        <mxCell id="RQP4UaDVUN7FKSA59rx9-84" value="&lt;p style=&quot;font-size: 24px;&quot;&gt;&lt;b style=&quot;font-size: 24px;&quot;&gt;&lt;font style=&quot;font-size: 24px;&quot;&gt;UnmatchedID-Host&lt;/font&gt;&lt;/b&gt;&lt;br style=&quot;font-size: 24px;&quot;&gt;&lt;/p&gt;" style="text;html=1;align=center;verticalAlign=middle;whiteSpace=wrap;rounded=0;fontSize=24;" vertex="1" parent="1">
          <mxGeometry x="942.5" y="530" width="257.5" height="30" as="geometry" />
        </mxCell>
        <mxCell id="RQP4UaDVUN7FKSA59rx9-92" value="" style="rounded=1;whiteSpace=wrap;html=1;fillColor=none;strokeWidth=2;dashed=1;" vertex="1" parent="1">
          <mxGeometry x="230" y="780" width="200" height="230" as="geometry" />
        </mxCell>
        <mxCell id="RQP4UaDVUN7FKSA59rx9-93" value="" style="rounded=1;whiteSpace=wrap;html=1;fillColor=none;strokeWidth=2;dashed=1;" vertex="1" parent="1">
          <mxGeometry x="470" y="780" width="220" height="230" as="geometry" />
        </mxCell>
        <mxCell id="RQP4UaDVUN7FKSA59rx9-94" value="" style="group" vertex="1" connectable="0" parent="1">
          <mxGeometry x="500" y="830" width="160" height="160" as="geometry" />
        </mxCell>
        <mxCell id="RQP4UaDVUN7FKSA59rx9-95" value="" style="rounded=0;whiteSpace=wrap;html=1;" vertex="1" parent="RQP4UaDVUN7FKSA59rx9-94">
          <mxGeometry width="160" height="160" as="geometry" />
        </mxCell>
        <mxCell id="RQP4UaDVUN7FKSA59rx9-96" value="" style="rounded=0;whiteSpace=wrap;html=1;" vertex="1" parent="RQP4UaDVUN7FKSA59rx9-94">
          <mxGeometry width="40" height="40" as="geometry" />
        </mxCell>
        <mxCell id="RQP4UaDVUN7FKSA59rx9-97" value="" style="rounded=0;whiteSpace=wrap;html=1;" vertex="1" parent="RQP4UaDVUN7FKSA59rx9-94">
          <mxGeometry y="40" width="40" height="40" as="geometry" />
        </mxCell>
        <mxCell id="RQP4UaDVUN7FKSA59rx9-98" value="" style="rounded=0;whiteSpace=wrap;html=1;" vertex="1" parent="RQP4UaDVUN7FKSA59rx9-94">
          <mxGeometry y="80" width="40" height="40" as="geometry" />
        </mxCell>
        <mxCell id="RQP4UaDVUN7FKSA59rx9-99" value="" style="rounded=0;whiteSpace=wrap;html=1;" vertex="1" parent="RQP4UaDVUN7FKSA59rx9-94">
          <mxGeometry y="120" width="40" height="40" as="geometry" />
        </mxCell>
        <mxCell id="RQP4UaDVUN7FKSA59rx9-100" value="" style="rounded=0;whiteSpace=wrap;html=1;" vertex="1" parent="RQP4UaDVUN7FKSA59rx9-94">
          <mxGeometry x="40" width="40" height="40" as="geometry" />
        </mxCell>
        <mxCell id="RQP4UaDVUN7FKSA59rx9-101" value="" style="rounded=0;whiteSpace=wrap;html=1;" vertex="1" parent="RQP4UaDVUN7FKSA59rx9-94">
          <mxGeometry x="40" y="40" width="40" height="40" as="geometry" />
        </mxCell>
        <mxCell id="RQP4UaDVUN7FKSA59rx9-102" value="" style="rounded=0;whiteSpace=wrap;html=1;" vertex="1" parent="RQP4UaDVUN7FKSA59rx9-94">
          <mxGeometry x="40" y="80" width="40" height="40" as="geometry" />
        </mxCell>
        <mxCell id="RQP4UaDVUN7FKSA59rx9-103" value="" style="rounded=0;whiteSpace=wrap;html=1;" vertex="1" parent="RQP4UaDVUN7FKSA59rx9-94">
          <mxGeometry x="40" y="120" width="40" height="40" as="geometry" />
        </mxCell>
        <mxCell id="RQP4UaDVUN7FKSA59rx9-104" value="" style="rounded=0;whiteSpace=wrap;html=1;" vertex="1" parent="RQP4UaDVUN7FKSA59rx9-94">
          <mxGeometry x="80" width="40" height="40" as="geometry" />
        </mxCell>
        <mxCell id="RQP4UaDVUN7FKSA59rx9-105" value="" style="rounded=0;whiteSpace=wrap;html=1;" vertex="1" parent="RQP4UaDVUN7FKSA59rx9-94">
          <mxGeometry x="80" y="40" width="40" height="40" as="geometry" />
        </mxCell>
        <mxCell id="RQP4UaDVUN7FKSA59rx9-106" value="" style="rounded=0;whiteSpace=wrap;html=1;" vertex="1" parent="RQP4UaDVUN7FKSA59rx9-94">
          <mxGeometry x="80" y="80" width="40" height="40" as="geometry" />
        </mxCell>
        <mxCell id="RQP4UaDVUN7FKSA59rx9-107" value="" style="rounded=0;whiteSpace=wrap;html=1;" vertex="1" parent="RQP4UaDVUN7FKSA59rx9-94">
          <mxGeometry x="80" y="120" width="40" height="40" as="geometry" />
        </mxCell>
        <mxCell id="RQP4UaDVUN7FKSA59rx9-108" value="" style="rounded=0;whiteSpace=wrap;html=1;" vertex="1" parent="RQP4UaDVUN7FKSA59rx9-94">
          <mxGeometry x="120" width="40" height="40" as="geometry" />
        </mxCell>
        <mxCell id="RQP4UaDVUN7FKSA59rx9-109" value="" style="rounded=0;whiteSpace=wrap;html=1;" vertex="1" parent="RQP4UaDVUN7FKSA59rx9-94">
          <mxGeometry x="120" y="40" width="40" height="40" as="geometry" />
        </mxCell>
        <mxCell id="RQP4UaDVUN7FKSA59rx9-110" value="" style="rounded=0;whiteSpace=wrap;html=1;" vertex="1" parent="RQP4UaDVUN7FKSA59rx9-94">
          <mxGeometry x="120" y="80" width="40" height="40" as="geometry" />
        </mxCell>
        <mxCell id="RQP4UaDVUN7FKSA59rx9-111" value="" style="rounded=0;whiteSpace=wrap;html=1;" vertex="1" parent="RQP4UaDVUN7FKSA59rx9-94">
          <mxGeometry x="120" y="120" width="40" height="40" as="geometry" />
        </mxCell>
        <mxCell id="RQP4UaDVUN7FKSA59rx9-112" value="&lt;p style=&quot;font-size: 24px;&quot;&gt;&lt;b style=&quot;font-size: 24px;&quot;&gt;&lt;font style=&quot;font-size: 24px;&quot;&gt;PRMatrix-PGPU&lt;/font&gt;&lt;/b&gt;&lt;/p&gt;" style="text;html=1;align=center;verticalAlign=middle;whiteSpace=wrap;rounded=0;fontSize=24;" vertex="1" parent="1">
          <mxGeometry x="232.8" y="800" width="194.4" height="30" as="geometry" />
        </mxCell>
        <mxCell id="RQP4UaDVUN7FKSA59rx9-113" value="&lt;p&gt;&lt;b&gt;&lt;font style=&quot;font-size: 24px;&quot;&gt;PrefListsW-PGPU&lt;/font&gt;&lt;/b&gt;&lt;/p&gt;" style="text;html=1;align=center;verticalAlign=middle;whiteSpace=wrap;rounded=0;" vertex="1" parent="1">
          <mxGeometry x="476.88" y="800" width="206.25" height="30" as="geometry" />
        </mxCell>
        <mxCell id="RQP4UaDVUN7FKSA59rx9-114" value="" style="rounded=0;whiteSpace=wrap;html=1;" vertex="1" parent="1">
          <mxGeometry x="250" y="830" width="157.61194029850745" height="160" as="geometry" />
        </mxCell>
        <mxCell id="RQP4UaDVUN7FKSA59rx9-115" value="" style="rounded=0;whiteSpace=wrap;html=1;" vertex="1" parent="1">
          <mxGeometry x="250" y="830" width="39.40298507462686" height="40" as="geometry" />
        </mxCell>
        <mxCell id="RQP4UaDVUN7FKSA59rx9-116" value="" style="rounded=0;whiteSpace=wrap;html=1;" vertex="1" parent="1">
          <mxGeometry x="250" y="870" width="39.40298507462686" height="40" as="geometry" />
        </mxCell>
        <mxCell id="RQP4UaDVUN7FKSA59rx9-117" value="" style="rounded=0;whiteSpace=wrap;html=1;" vertex="1" parent="1">
          <mxGeometry x="250" y="910" width="39.40298507462686" height="40" as="geometry" />
        </mxCell>
        <mxCell id="RQP4UaDVUN7FKSA59rx9-118" value="" style="rounded=0;whiteSpace=wrap;html=1;" vertex="1" parent="1">
          <mxGeometry x="250" y="950" width="39.40298507462686" height="40" as="geometry" />
        </mxCell>
        <mxCell id="RQP4UaDVUN7FKSA59rx9-119" value="" style="rounded=0;whiteSpace=wrap;html=1;" vertex="1" parent="1">
          <mxGeometry x="289.4029850746268" y="830" width="39.40298507462686" height="40" as="geometry" />
        </mxCell>
        <mxCell id="RQP4UaDVUN7FKSA59rx9-120" value="" style="rounded=0;whiteSpace=wrap;html=1;" vertex="1" parent="1">
          <mxGeometry x="289.4029850746268" y="870" width="39.40298507462686" height="40" as="geometry" />
        </mxCell>
        <mxCell id="RQP4UaDVUN7FKSA59rx9-121" value="" style="rounded=0;whiteSpace=wrap;html=1;" vertex="1" parent="1">
          <mxGeometry x="289.4029850746268" y="910" width="39.40298507462686" height="40" as="geometry" />
        </mxCell>
        <mxCell id="RQP4UaDVUN7FKSA59rx9-122" value="" style="rounded=0;whiteSpace=wrap;html=1;" vertex="1" parent="1">
          <mxGeometry x="289.4029850746268" y="950" width="39.40298507462686" height="40" as="geometry" />
        </mxCell>
        <mxCell id="RQP4UaDVUN7FKSA59rx9-123" value="" style="rounded=0;whiteSpace=wrap;html=1;" vertex="1" parent="1">
          <mxGeometry x="328.8059701492537" y="830" width="39.40298507462686" height="40" as="geometry" />
        </mxCell>
        <mxCell id="RQP4UaDVUN7FKSA59rx9-124" value="" style="rounded=0;whiteSpace=wrap;html=1;" vertex="1" parent="1">
          <mxGeometry x="328.8059701492537" y="870" width="39.40298507462686" height="40" as="geometry" />
        </mxCell>
        <mxCell id="RQP4UaDVUN7FKSA59rx9-125" value="" style="rounded=0;whiteSpace=wrap;html=1;" vertex="1" parent="1">
          <mxGeometry x="328.8059701492537" y="910" width="39.40298507462686" height="40" as="geometry" />
        </mxCell>
        <mxCell id="RQP4UaDVUN7FKSA59rx9-126" value="" style="rounded=0;whiteSpace=wrap;html=1;" vertex="1" parent="1">
          <mxGeometry x="328.8059701492537" y="950" width="39.40298507462686" height="40" as="geometry" />
        </mxCell>
        <mxCell id="RQP4UaDVUN7FKSA59rx9-127" value="" style="rounded=0;whiteSpace=wrap;html=1;" vertex="1" parent="1">
          <mxGeometry x="368.2089552238806" y="830" width="39.40298507462686" height="40" as="geometry" />
        </mxCell>
        <mxCell id="RQP4UaDVUN7FKSA59rx9-128" value="" style="rounded=0;whiteSpace=wrap;html=1;" vertex="1" parent="1">
          <mxGeometry x="368.2089552238806" y="870" width="39.40298507462686" height="40" as="geometry" />
        </mxCell>
        <mxCell id="RQP4UaDVUN7FKSA59rx9-129" value="" style="rounded=0;whiteSpace=wrap;html=1;" vertex="1" parent="1">
          <mxGeometry x="368.2089552238806" y="910" width="39.40298507462686" height="40" as="geometry" />
        </mxCell>
        <mxCell id="RQP4UaDVUN7FKSA59rx9-130" value="" style="rounded=0;whiteSpace=wrap;html=1;" vertex="1" parent="1">
          <mxGeometry x="368.2089552238806" y="950" width="39.40298507462686" height="40" as="geometry" />
        </mxCell>
        <mxCell id="RQP4UaDVUN7FKSA59rx9-142" value="" style="endArrow=none;html=1;rounded=0;exitX=0.001;exitY=0.108;exitDx=0;exitDy=0;exitPerimeter=0;strokeWidth=4;entryX=1.002;entryY=0.159;entryDx=0;entryDy=0;entryPerimeter=0;" edge="1" parent="1" target="RQP4UaDVUN7FKSA59rx9-3">
          <mxGeometry width="50" height="50" relative="1" as="geometry">
            <mxPoint x="201.03999999999996" y="361.03999999999996" as="sourcePoint" />
            <mxPoint x="1241" y="361" as="targetPoint" />
          </mxGeometry>
        </mxCell>
        <mxCell id="RQP4UaDVUN7FKSA59rx9-143" value="" style="endArrow=none;html=1;rounded=0;exitX=0.001;exitY=0.108;exitDx=0;exitDy=0;exitPerimeter=0;strokeWidth=4;" edge="1" parent="1">
          <mxGeometry width="50" height="50" relative="1" as="geometry">
            <mxPoint x="201.03999999999996" y="761.04" as="sourcePoint" />
            <mxPoint x="720" y="761" as="targetPoint" />
          </mxGeometry>
        </mxCell>
      </root>
    </mxGraphModel>
  </diagram>
</mxfile>
